<svg width="1247" height="480" viewBox="0 0 1247 480" fill="none" xmlns="http://www.w3.org/2000/svg">
<mask id="mask0_2372_1645" style="mask-type:alpha" maskUnits="userSpaceOnUse" x="120" y="120" width="240" height="240">
<path d="M120 214.543C120 205.458 124.365 196.923 131.736 191.597L223.372 125.378C233.295 118.207 246.705 118.207 256.628 125.378L348.264 191.597C355.635 196.923 360 205.458 360 214.543V345.62C360 353.562 353.553 360 345.6 360H134.4C126.447 360 120 353.562 120 345.62V214.543Z" fill="#F1565C"/>
</mask>
<g mask="url(#mask0_2372_1645)">
<path fill-rule="evenodd" clip-rule="evenodd" d="M131.735 191.597C124.364 196.923 120 205.458 120 214.543V289.149C119.204 289.146 118.404 289.136 117.6 289.12V302.657C118.403 302.57 119.203 302.492 120 302.423V345.62C120 353.562 126.447 360 134.4 360H345.6C353.553 360 360 353.562 360 345.62V214.543C360 210.681 359.211 206.918 357.738 203.459C358.476 202.961 359.917 201.997 361.333 201.106V192C360.449 192.549 359.656 193.026 359.38 193.177C359.358 193.189 359.336 193.2 359.314 193.212C359.272 193.235 359.23 193.257 359.189 193.281C357.254 194.423 355.31 195.437 353.361 196.333C351.879 194.57 350.172 192.976 348.264 191.597L256.628 125.378C246.705 118.207 233.294 118.207 223.372 125.378L131.735 191.597ZM353.361 196.333C333.872 205.288 313.992 202.375 299.854 196.423C299.854 196.423 283.87 188.225 264.607 195.111C245.344 201.996 235.467 219.754 235.467 219.754C235.467 219.754 203.341 289.514 120 289.149V302.423C168.644 298.21 204.149 327.387 204.149 327.387C204.149 327.387 243.295 358.315 283.87 335.773C314.783 318.599 319.254 285.264 322.029 264.579L322.029 264.579C322.565 260.581 323.038 257.056 323.626 254.212C327.257 236.649 337.561 216.915 357.234 203.8C357.234 203.8 357.421 203.672 357.738 203.459C356.642 200.887 355.169 198.484 353.361 196.333ZM296 216C296 220.419 292.419 224.001 288 224.001C283.582 224.001 280 220.419 280 216C280 211.582 283.582 208 288 208C292.419 208 296 211.582 296 216Z" fill="#F1565C"/>
</g>
<path fill-rule="evenodd" clip-rule="evenodd" d="M441.787 169.429C445.838 173.3 450.626 175.236 456.149 175.236C461.858 175.236 466.645 173.3 470.512 169.429C474.378 165.373 476.312 160.488 476.312 154.774C476.312 149.243 474.378 144.543 470.512 140.671C466.645 136.616 461.858 134.588 456.149 134.588C450.626 134.588 445.838 136.616 441.787 140.671C437.736 144.543 435.711 149.243 435.711 154.774C435.711 160.488 437.736 165.373 441.787 169.429ZM440.959 334.221C440.959 339.42 445.174 343.635 450.373 343.635H461.926C467.125 343.635 471.34 339.42 471.34 334.221V214.79C471.34 209.591 467.125 205.376 461.926 205.376H450.373C445.174 205.376 440.959 209.591 440.959 214.79V334.221ZM1017.09 302.693C1017.09 325.304 1035.42 343.634 1058.03 343.634C1060.78 343.634 1063 341.412 1063 338.671V315.731C1063 314.058 1061.64 312.702 1059.97 312.702C1053.07 312.702 1047.47 307.108 1047.47 300.207V145.66C1047.47 140.461 1043.26 136.246 1038.06 136.246H1026.51C1021.31 136.246 1017.09 140.461 1017.09 145.66V302.693ZM878.878 326.214C892.503 339.671 909.812 346.4 930.803 346.4C956.099 346.4 975.397 338.108 988.698 321.524C991.8 317.655 990.64 312.082 986.606 309.197L978.768 303.592C974.335 300.422 968.222 301.774 964.453 305.709C956.127 314.402 945.002 318.748 931.079 318.748C919.294 318.748 909.443 315.338 901.526 308.517C893.608 301.512 889.281 292.387 888.545 281.142H988.245C993.216 281.142 997.337 277.274 997.363 272.303L997.364 272.131L997.365 271.917C997.365 271.802 997.365 271.686 997.365 271.57C997.366 271.443 997.366 271.315 997.366 271.187C997.366 249.803 991.013 233.028 978.308 220.861C965.787 208.694 949.952 202.611 930.803 202.611C909.996 202.611 892.78 209.524 879.154 223.35C865.528 236.991 858.715 254.043 858.715 274.505C858.715 295.521 865.436 312.757 878.878 326.214ZM965.31 259.02H889.926C891.951 249.25 896.646 241.692 904.012 236.346C911.561 231 920.123 228.327 929.698 228.327C938.904 228.327 946.914 231.092 953.727 236.623C960.386 241.71 964.627 248.718 966.449 257.646C966.595 258.361 966.041 259.02 965.31 259.02ZM1122.04 343.634C1099.42 343.634 1081.09 325.304 1081.09 302.693V145.66C1081.09 140.461 1085.31 136.246 1090.51 136.246H1102.06C1107.26 136.246 1111.48 140.461 1111.48 145.66V300.207C1111.48 307.108 1117.07 312.702 1123.97 312.702C1125.64 312.702 1127 314.058 1127 315.731V338.671C1127 341.412 1124.78 343.634 1122.04 343.634ZM556.021 346.4C537.24 346.4 521.405 339.395 508.515 325.385C495.81 311.374 489.458 294.415 489.458 274.506C489.458 254.596 495.81 237.637 508.515 223.626C521.405 209.616 537.24 202.611 556.021 202.611C565.412 202.611 574.066 204.731 581.984 208.971C589.901 213.027 595.977 218.004 600.212 223.903V145.661C600.212 140.462 604.427 136.247 609.627 136.247H621.18C626.379 136.247 630.594 140.462 630.594 145.661V334.221C630.594 339.42 626.379 343.635 621.18 343.635H609.627C604.427 343.635 600.212 339.42 600.212 334.221V325.108C595.977 331.007 589.901 336.077 581.984 340.317C574.066 344.372 565.412 346.4 556.021 346.4ZM531.992 306.028C539.726 314.508 549.577 318.748 561.545 318.748C573.514 318.748 583.365 314.508 591.098 306.028C598.831 297.549 602.698 287.041 602.698 274.506C602.698 261.97 598.831 251.462 591.098 242.983C583.365 234.503 573.514 230.263 561.545 230.263C549.577 230.263 539.726 234.503 531.992 242.983C524.259 251.462 520.392 261.97 520.392 274.506C520.392 287.041 524.259 297.549 531.992 306.028ZM780.103 337.252C781.401 341.069 784.984 343.635 789.016 343.635H804.227C808.272 343.635 811.865 341.051 813.152 337.216L853.235 217.785C855.282 211.686 850.743 205.376 844.309 205.376H831.966C827.867 205.376 824.24 208.028 822.996 211.934L795.809 297.301C795.462 298.389 793.924 298.395 793.569 297.31L765.615 211.863C764.349 207.993 760.739 205.376 756.667 205.376H747.08C743.026 205.376 739.428 207.971 738.148 211.816L709.681 297.316C709.32 298.399 707.782 298.385 707.441 297.295L680.765 211.981C679.537 208.051 675.897 205.376 671.78 205.376H659.751C653.317 205.376 648.779 211.686 650.826 217.785L690.908 337.216C692.195 341.051 695.788 343.635 699.833 343.635H715.025C719.066 343.635 722.656 341.056 723.946 337.228L750.782 257.613C751.142 256.547 752.649 256.545 753.011 257.61L780.103 337.252Z" fill="#3A4A58"/>
</svg>
